<svg width="16" height="16" viewBox="0 0 16 16" fill="none" xmlns="http://www.w3.org/2000/svg">
<rect width="16" height="16" fill="white"/>
<path d="M1.6106 5.00321C1.6073 5.00651 1.604 5.4208 1.604 5.9252V6.8406H1.62818C1.69192 6.8406 1.83807 6.88017 1.92159 6.92083C2.08643 6.99995 2.20731 7.13182 2.27105 7.30215C2.30731 7.39776 2.30951 7.56699 2.27544 7.67578C2.23259 7.81425 2.1139 7.95821 1.97983 8.03733C1.88753 8.09227 1.75346 8.13733 1.68423 8.13733C1.65565 8.13733 1.62488 8.14173 1.61829 8.14612C1.6073 8.15271 1.604 8.35492 1.604 9.07031C1.604 9.57472 1.6051 9.98791 1.6062 9.98901C1.6084 9.99011 4.48537 9.99341 7.99972 9.9956L14.3899 10L14.3932 9.0813L14.3954 8.16151L14.3218 8.15381C14.2273 8.14392 14.0625 8.08568 13.9932 8.03733C13.9449 8.00436 13.8361 7.90106 13.8075 7.8615C13.7822 7.82634 13.7504 7.7648 13.7251 7.70326C13.7009 7.64611 13.6976 7.61974 13.6976 7.51095C13.6976 7.39995 13.702 7.37578 13.7284 7.30655C13.8273 7.0516 14.0427 6.89335 14.3405 6.85599C14.368 6.85269 14.391 6.8483 14.3921 6.8472C14.3998 6.83951 14.3954 5.02299 14.3877 5.0164C14.3779 5.00651 1.61939 4.99332 1.6106 5.00321ZM8.12939 5.11969C11.4976 5.12299 14.2581 5.12849 14.2647 5.13178C14.2702 5.13618 14.2746 5.44827 14.2746 5.9329C14.2746 6.60214 14.2724 6.72961 14.2592 6.7406C14.2504 6.74829 14.2119 6.76148 14.1735 6.77137C13.8427 6.85379 13.591 7.13621 13.5679 7.4505C13.5515 7.6615 13.6218 7.85161 13.7745 8.01095C13.8921 8.13293 14.0152 8.19887 14.2504 8.2648C14.2603 8.267 14.2636 8.30876 14.2636 8.41975C14.2647 9.38131 14.2614 9.86923 14.2548 9.87582C14.2394 9.89121 1.78533 9.88351 1.73807 9.86813C1.71829 9.86154 1.71939 8.27579 1.73917 8.26041C1.74686 8.25382 1.78423 8.24063 1.82379 8.22964C2.12379 8.14832 2.35127 7.92414 2.41171 7.65051C2.46776 7.39666 2.38534 7.14171 2.18643 6.95819C2.08643 6.86478 1.99522 6.81313 1.86774 6.77247C1.8106 6.75379 1.75675 6.73621 1.74796 6.73181C1.73368 6.72522 1.73258 6.60873 1.73478 5.9274C1.73587 5.49003 1.74027 5.12849 1.74467 5.12409C1.75126 5.1175 1.96445 5.10651 1.99412 5.112C2.00071 5.1131 4.7612 5.1164 8.12939 5.11969Z" fill="black"/>
<path d="M2.80935 5.2151C2.79396 5.22719 2.77528 5.25466 2.76869 5.27554C2.7522 5.32389 2.77748 5.37554 2.82803 5.39642C2.87199 5.4151 2.90825 5.40741 2.94781 5.37115C3.03902 5.28543 2.90825 5.13817 2.80935 5.2151Z" fill="black"/>
<path d="M2.82357 5.64024C2.74995 5.6765 2.74115 5.76002 2.80489 5.81387C2.88401 5.8809 3.0049 5.79629 2.97083 5.69958C2.94995 5.64134 2.87852 5.61167 2.82357 5.64024Z" fill="black"/>
<path d="M5.45033 5.80888C5.30527 5.82976 5.15252 5.91218 5.0734 6.00998C4.98548 6.12098 4.94482 6.25834 4.94482 6.44296C4.94592 6.78033 5.10197 6.99352 5.40198 7.06825C5.51187 7.09462 5.74814 7.09462 5.85693 7.06715C6.091 7.0078 6.23276 6.87264 6.2932 6.65175C6.31738 6.56494 6.31957 6.33527 6.2976 6.24735C6.24155 6.01878 6.07451 5.86273 5.83275 5.81438C5.74264 5.7957 5.55473 5.7935 5.45033 5.80888ZM5.71737 6.10889C5.78989 6.13087 5.83165 6.16493 5.86572 6.22867C5.89319 6.28252 5.89539 6.29461 5.89539 6.43417C5.89539 6.6034 5.8844 6.64626 5.82726 6.71C5.72726 6.82099 5.49319 6.8078 5.41296 6.68692C5.36901 6.61989 5.36022 6.57153 5.36461 6.41659C5.36791 6.27922 5.36901 6.27043 5.40088 6.21988C5.44154 6.15504 5.4767 6.12757 5.54593 6.10889C5.61517 6.09021 5.65583 6.09021 5.71737 6.10889Z" fill="black"/>
<path d="M3.52686 5.96858V6.12792L3.73895 6.13012L3.94994 6.13342L3.95324 6.60815L3.95543 7.08398H4.15873H4.36204V6.60595V6.12792H4.57083H4.77962V5.96858V5.80924H4.15324H3.52686V5.96858Z" fill="black"/>
<path d="M6.62598 6.44661V7.08398H6.82928H7.03258L7.03477 6.88288L7.03807 6.68288L7.24137 6.67738C7.43478 6.67189 7.44797 6.66969 7.51171 6.64112C7.59632 6.60156 7.67105 6.52683 7.71061 6.44112C7.73479 6.38727 7.74138 6.3554 7.74468 6.26968C7.75347 6.0521 7.67105 5.90704 7.49632 5.83561C7.43478 5.81034 7.42709 5.80924 7.03038 5.80924H6.62598V6.44661ZM7.26885 6.12133C7.3161 6.14111 7.33258 6.17298 7.33258 6.24771C7.33258 6.30155 7.32819 6.31144 7.29742 6.33892C7.26335 6.36969 7.26005 6.37078 7.15016 6.36749L7.03807 6.36419L7.03477 6.2499C7.03368 6.18617 7.03477 6.12792 7.03697 6.12023C7.04467 6.10045 7.21939 6.10045 7.26885 6.12133Z" fill="black"/>
<path d="M2.80086 6.09143C2.77558 6.1145 2.76679 6.13209 2.76569 6.16176C2.76239 6.26835 2.88218 6.31561 2.95031 6.23429C2.98987 6.18813 2.98657 6.14418 2.94042 6.09802C2.89317 6.05077 2.84921 6.04857 2.80086 6.09143Z" fill="black"/>
<path d="M2.80532 6.51709C2.77675 6.53687 2.75367 6.6017 2.76356 6.63247C2.78883 6.71159 2.88334 6.73467 2.94488 6.67643C2.97675 6.64566 2.98005 6.63797 2.97455 6.59621C2.96686 6.53687 2.9273 6.5006 2.87015 6.5006C2.84708 6.5006 2.8185 6.50829 2.80532 6.51709Z" fill="black"/>
<path d="M2.8294 6.9385C2.73049 6.98136 2.74698 7.12312 2.85357 7.1429C2.95028 7.16048 3.01402 7.03191 2.94149 6.96267C2.91291 6.9363 2.86127 6.92531 2.8294 6.9385Z" fill="black"/>
<path d="M2.79863 7.39375C2.76236 7.42782 2.75137 7.46848 2.76896 7.51134C2.78764 7.55419 2.81951 7.57617 2.86786 7.57617C2.91621 7.57617 2.94808 7.55419 2.96676 7.51134C3.00852 7.40914 2.87885 7.31902 2.79863 7.39375Z" fill="black"/>
<path d="M2.84067 7.80385C2.78243 7.81814 2.74507 7.89177 2.76814 7.94891C2.8099 8.04781 2.95716 8.02474 2.97364 7.91594C2.98353 7.85001 2.90881 7.78627 2.84067 7.80385Z" fill="black"/>
<path d="M6.33484 7.89127C6.32275 7.89347 6.28539 7.90116 6.25242 7.90776C6.14802 7.92864 6.04253 7.98578 5.97329 8.06161C5.89967 8.14073 5.87659 8.18359 5.84362 8.29897C5.80846 8.42315 5.80846 8.64403 5.84472 8.77261C5.91615 9.02756 6.10407 9.15833 6.42495 9.17811C6.70188 9.19349 6.92935 9.09569 7.02606 8.91766C7.05573 8.86382 7.0865 8.74294 7.0876 8.68359V8.65392H6.90188H6.71616L6.70517 8.70337C6.6799 8.82316 6.59418 8.8803 6.45352 8.87151C6.35242 8.86492 6.30737 8.83634 6.26671 8.75393C6.24143 8.70228 6.23703 8.677 6.23264 8.56821C6.22165 8.29897 6.29198 8.18908 6.4722 8.18908C6.55572 8.18908 6.59638 8.20666 6.64583 8.26271C6.6755 8.29677 6.68539 8.32425 6.69528 8.40117C6.69748 8.41546 6.72935 8.41766 6.89309 8.42095L7.0876 8.42315V8.39238C7.0876 8.32864 7.06232 8.22864 7.03046 8.16161C6.96562 8.03084 6.83375 7.93853 6.65572 7.90226C6.5799 7.88688 6.39198 7.88028 6.33484 7.89127Z" fill="black"/>
<path d="M12.2637 7.89771C12.0933 7.92518 11.9615 8.0043 11.9065 8.1109C11.8648 8.19222 11.8549 8.3142 11.8845 8.40101C11.934 8.54937 12.0604 8.6197 12.4274 8.69992C12.5615 8.72959 12.6087 8.75596 12.6131 8.80541C12.6175 8.85377 12.5812 8.87575 12.4845 8.88344C12.3285 8.89443 12.2483 8.85926 12.2351 8.77464L12.2274 8.73179H12.0351H11.8428L11.8505 8.80541C11.8768 9.06146 12.0724 9.17795 12.4725 9.17575C12.6263 9.17465 12.6516 9.17245 12.7329 9.14608C12.8637 9.10212 12.9439 9.03948 12.9911 8.94388C13.0252 8.87465 13.0274 8.86256 13.0274 8.75816C13.0274 8.65486 13.0252 8.64497 12.9944 8.59332C12.9252 8.48343 12.823 8.43288 12.5318 8.36914C12.323 8.32409 12.2736 8.29661 12.2889 8.23507C12.301 8.19002 12.3604 8.16804 12.4615 8.17354C12.5351 8.17683 12.5516 8.18123 12.5758 8.20321C12.5922 8.21859 12.6087 8.24606 12.6131 8.26365L12.6219 8.29771L12.8131 8.30101L13.0032 8.30321L12.9955 8.24167C12.9747 8.06254 12.845 7.94496 12.6219 7.9021C12.5296 7.88452 12.3604 7.88232 12.2637 7.89771Z" fill="black"/>
<path d="M3.52686 8.05452V8.21386L3.73895 8.21606L3.94994 8.21936L3.95324 8.69409L3.95543 9.16992H4.15873H4.36204V8.69189V8.21386H4.57083H4.77962V8.05452V7.89517H4.15324H3.52686V8.05452Z" fill="black"/>
<path d="M5.07666 8.53255V9.16992H5.27996H5.48326V8.53255V7.89517H5.27996H5.07666V8.53255Z" fill="black"/>
<path d="M7.40625 8.53255V9.16992H7.61285H7.82054L7.81725 9.05014C7.81615 8.9853 7.81725 8.91937 7.82054 8.90508C7.82384 8.8875 7.8623 8.85014 7.92824 8.79849C7.98428 8.75563 8.03483 8.71936 8.03923 8.71936C8.04472 8.72046 8.10626 8.82047 8.17659 8.94245L8.30297 9.16443L8.54143 9.16772C8.67221 9.16882 8.7799 9.16663 8.7799 9.16113C8.7799 9.15673 8.76122 9.12267 8.73704 9.0864C8.62385 8.91277 8.34802 8.46991 8.33704 8.44793C8.32824 8.42705 8.33044 8.41826 8.34802 8.39738C8.40077 8.33804 8.75463 7.92155 8.76232 7.90836C8.76891 7.89847 8.71726 7.89517 8.51946 7.89517H8.2689L8.05022 8.16441C7.93044 8.31276 7.82933 8.43145 7.82604 8.42815C7.82274 8.42485 7.81835 8.30507 7.81725 8.16111L7.81395 7.90067L7.61065 7.89737L7.40625 7.89517V8.53255Z" fill="black"/>
<path d="M9.04346 8.53255V9.16992H9.59841H10.1534V9.01607V8.86222H9.80171H9.45006V8.76882V8.67541H9.74677H10.0435V8.52705V8.3787H9.74677H9.44896L9.45226 8.28749L9.45555 8.19738L9.79951 8.19408L10.1424 8.19188V8.04353V7.89517H9.59292H9.04346V8.53255Z" fill="black"/>
<path d="M10.373 8.05452V8.21386H10.5818H10.7906V8.67431C10.7906 8.92816 10.7939 9.14245 10.7972 9.15234C10.8027 9.16772 10.8324 9.16992 11.006 9.16992H11.2082V8.69189V8.21386H11.417H11.6258V8.05452V7.89517H10.9994H10.373V8.05452Z" fill="black"/>
<path d="M2.81606 8.24765C2.78748 8.25973 2.75781 8.31248 2.75781 8.35204C2.75781 8.36963 2.771 8.3938 2.78968 8.41358C2.871 8.4949 3.00287 8.41688 2.96661 8.30809C2.94683 8.24875 2.87979 8.22237 2.81606 8.24765Z" fill="black"/>
<path d="M2.81738 8.68404C2.75145 8.7247 2.74265 8.80492 2.7987 8.85657C2.83716 8.89174 2.88881 8.89174 2.93167 8.85548C2.97343 8.82141 2.98222 8.78405 2.96244 8.73569C2.93716 8.67525 2.87123 8.65108 2.81738 8.68404Z" fill="black"/>
<path d="M2.80741 9.12568C2.75027 9.16305 2.74257 9.22569 2.78653 9.27843C2.80961 9.30701 2.82279 9.3125 2.86126 9.3125C2.9173 9.3125 2.95027 9.29052 2.96675 9.24217C2.98104 9.19711 2.96895 9.15975 2.92719 9.12678C2.89093 9.09821 2.85027 9.09711 2.80741 9.12568Z" fill="black"/>
<path d="M2.78995 9.57549C2.69984 9.6656 2.82731 9.80736 2.92731 9.72934C2.96907 9.69637 2.98116 9.65901 2.96687 9.61395C2.9416 9.53922 2.84709 9.51834 2.78995 9.57549Z" fill="black"/>
</svg>
