<svg aria-hidden="true" style="position: absolute; width: 0; height: 0; overflow: hidden;" version="1.1" xmlns="http://www.w3.org/2000/svg" xmlns:xlink="http://www.w3.org/1999/xlink">
<defs>

<symbol id="icon-shop-cart" viewBox="0 0 32 32">
<path d="M32 5.333v1.333h-10.667v-1.333h10.667zM12 29.333c0 1.467-1.2 2.667-2.667 2.667s-2.667-1.2-2.667-2.667c0-1.467 1.2-2.667 2.667-2.667s2.667 1.2 2.667 2.667zM10.667 29.333c0-0.733-0.6-1.333-1.333-1.333s-1.333 0.6-1.333 1.333c0 0.733 0.6 1.333 1.333 1.333s1.333-0.6 1.333-1.333zM25.333 29.333c0 1.467-1.2 2.667-2.667 2.667s-2.667-1.2-2.667-2.667c0-1.467 1.2-2.667 2.667-2.667s2.667 1.2 2.667 2.667zM24 29.333c0-0.733-0.6-1.333-1.333-1.333s-1.333 0.6-1.333 1.333c0 0.733 0.6 1.333 1.333 1.333s1.333-0.6 1.333-1.333zM27.92 18.667h-20.080l-1.667-12h11.16v-1.333h-11.347l-0.347-2.453c-0.227-1.64-1.64-2.88-3.293-2.88h-2.347v1.333h2.347c1 0 1.84 0.747 1.987 1.72l2.693 19.4c0.227 1.64 1.64 2.88 3.307 2.88h16.347v-1.333h-16.36c-1 0-1.84-0.747-1.987-1.72l-0.32-2.28h20.987l1.867-9.333h-1.36l-1.6 8h0.013z"></path>
</symbol>


<symbol id="icon-search" viewBox="0 0 32 32">
<path d="M12.767 25.754c2.772 0 5.329-0.897 7.421-2.391l7.869 7.869c0.365 0.365 0.847 0.548 1.361 0.548 1.079 0 1.843-0.83 1.843-1.893 0-0.498-0.166-0.979-0.531-1.328l-7.819-7.836c1.644-2.158 2.623-4.831 2.623-7.736 0-7.022-5.744-12.767-12.767-12.767-7.006 0-12.767 5.728-12.767 12.767 0 7.023 5.744 12.767 12.767 12.767zM12.767 22.998c-5.479 0-10.011-4.532-10.011-10.011s4.532-10.011 10.011-10.011c5.479 0 10.011 4.532 10.011 10.011s-4.532 10.011-10.011 10.011z"></path>
</symbol>

<symbol id="icon-Component" viewBox="0 0 76 32">
<path d="M-2.54-9.651h81.27v46.73h-81.27v-46.73z"></path>
</symbol>



<symbol id="icon-cancel" viewBox="0 0 32 32">
<path  d="M16 2.667c-7.373 0-13.333 5.96-13.333 13.333s5.96 13.333 13.333 13.333c7.373 0 13.333-5.96 13.333-13.333s-5.96-13.333-13.333-13.333zM16 26.667c-5.88 0-10.667-4.787-10.667-10.667s4.787-10.667 10.667-10.667c5.88 0 10.667 4.787 10.667 10.667s-4.787 10.667-10.667 10.667zM16 14.12l4.787-4.787 1.88 1.88-4.787 4.787 4.787 4.787-1.88 1.88-4.787-4.787-4.787 4.787-1.88-1.88 4.787-4.787-4.787-4.787 1.88-1.88 4.787 4.787z"></path>
</symbol>
 <symbol id="icon-x-close" viewBox="0 0 32 32">
<path stroke-linejoin="round" stroke-linecap="round" stroke-miterlimit="4" stroke-width="2.6667" d="M24 8l-16 16"></path>
<path stroke-linejoin="round" stroke-linecap="round" stroke-miterlimit="4" stroke-width="2.6667" d="M8 8l16 16"></path>
</symbol>


<symbol id="icon-info" viewBox="0 0 32 32">
<path fill="#63a6f7" style="fill: var(--color1, #63a6f7)" d="M14.669 9.335h2.667v2.667h-2.667v-2.667zM14.669 14.669h2.667v8h-2.667v-8zM16.002 2.669c-7.36 0-13.333 5.973-13.333 13.333s5.973 13.333 13.333 13.333c7.36 0 13.333-5.973 13.333-13.333s-5.973-13.333-13.333-13.333zM16.002 26.669c-5.88 0-10.667-4.787-10.667-10.667s4.787-10.667 10.667-10.667c5.88 0 10.667 4.787 10.667 10.667s-4.787 10.667-10.667 10.667z"></path>
</symbol>

<symbol id="icon-navigate_next" viewBox="0 0 32 32">
<path  d="M13.36 8l-1.88 1.88 6.107 6.12-6.107 6.12 1.88 1.88 8-8-8-8z"></path>
</symbol>

<symbol id="icon-place" viewBox="0 0 26 32">
<path fill="none" stroke="#7e7e7e" style="stroke: var(--color1, #7e7e7e)" stroke-linejoin="miter" stroke-linecap="butt" stroke-miterlimit="4" stroke-width="2.8235" d="M13.177 28.613c0 0 10.607-9.428 10.607-16.499 0-5.858-4.749-10.607-10.607-10.607s-10.607 4.749-10.607 10.607c0 7.071 10.607 16.499 10.607 16.499z"></path>
<path fill="none" stroke="#7e7e7e" style="stroke: var(--color1, #7e7e7e)" stroke-linejoin="miter" stroke-linecap="butt" stroke-miterlimit="4" stroke-width="2.8235" d="M16.565 11.672c0 1.871-1.517 3.388-3.388 3.388s-3.388-1.517-3.388-3.388c0-1.871 1.517-3.388 3.388-3.388s3.388 1.517 3.388 3.388z"></path>
</symbol>


<symbol id="icon-calendar" viewBox="0 0 32 32">
<path fill="none" stroke="#7e7e7e" style="stroke: var(--color1, #7e7e7e)" stroke-linejoin="round" stroke-linecap="round" stroke-miterlimit="4" stroke-width="3" d="M8.714 9.853h14.458M7.728 1.656v2.459M23.969 1.656v2.459M28.75 8.615v17.229c0 2.485-2.015 4.5-4.5 4.5h-16.5c-2.485 0-4.5-2.015-4.5-4.5v-17.229c0-2.485 2.015-4.5 4.5-4.5h16.5c2.485 0 4.5 2.015 4.5 4.5z"></path>
</symbol>


<symbol id="icon-ticket" viewBox="0 0 32 32">
<path fill="none" stroke="#7e7e7e" style="stroke: var(--color1, #7e7e7e)" stroke-linejoin="round" stroke-linecap="round" stroke-miterlimit="4" stroke-width="2.6667" d="M19.2 20.187v-0.259M19.199 16.183v-0.258M19.199 12.196v-0.258M6.682 4.613h9.319c0.053 1.887 1.599 3.4 3.499 3.4s3.446-1.513 3.498-3.4h2.319c2.807 0 5.082 2.275 5.082 5.082v12.609c0 2.807-2.275 5.082-5.082 5.082h-2.319c-0.053-1.887-1.599-3.4-3.498-3.4s-3.446 1.513-3.499 3.4h-9.319c-2.807 0-5.082-2.276-5.082-5.082l-0-12.609c0-2.807 2.275-5.082 5.082-5.082z"></path>
</symbol>

<symbol id="icon-check" viewBox="0 0 32 32">
<path fill="#007aff" style="fill: var(--color2, #007aff)" d="M28 16c0 6.627-5.373 12-12 12s-12-5.373-12-12c0-6.627 5.373-12 12-12s12 5.373 12 12z"></path>
<path fill="none" stroke="#fff" style="stroke: var(--color3, #fff)" stroke-linejoin="miter" stroke-linecap="butt" stroke-miterlimit="4" stroke-width="1.3333" d="M12 16.667l3.333 2.667 6-6.667"></path>
</symbol>

</defs>
</svg>
