<svg aria-hidden="true" style="position: absolute; width: 0; height: 0; overflow: hidden;" version="1.1" xmlns="http://www.w3.org/2000/svg" xmlns:xlink="http://www.w3.org/1999/xlink">
<defs>

<symbol id="icon-shop-cart" viewBox="0 0 32 32">
<path d="M32 5.333v1.333h-10.667v-1.333h10.667zM12 29.333c0 1.467-1.2 2.667-2.667 2.667s-2.667-1.2-2.667-2.667c0-1.467 1.2-2.667 2.667-2.667s2.667 1.2 2.667 2.667zM10.667 29.333c0-0.733-0.6-1.333-1.333-1.333s-1.333 0.6-1.333 1.333c0 0.733 0.6 1.333 1.333 1.333s1.333-0.6 1.333-1.333zM25.333 29.333c0 1.467-1.2 2.667-2.667 2.667s-2.667-1.2-2.667-2.667c0-1.467 1.2-2.667 2.667-2.667s2.667 1.2 2.667 2.667zM24 29.333c0-0.733-0.6-1.333-1.333-1.333s-1.333 0.6-1.333 1.333c0 0.733 0.6 1.333 1.333 1.333s1.333-0.6 1.333-1.333zM27.92 18.667h-20.080l-1.667-12h11.16v-1.333h-11.347l-0.347-2.453c-0.227-1.64-1.64-2.88-3.293-2.88h-2.347v1.333h2.347c1 0 1.84 0.747 1.987 1.72l2.693 19.4c0.227 1.64 1.64 2.88 3.307 2.88h16.347v-1.333h-16.36c-1 0-1.84-0.747-1.987-1.72l-0.32-2.28h20.987l1.867-9.333h-1.36l-1.6 8h0.013z"></path>
</symbol>


<symbol id="icon-search" viewBox="0 0 32 32">
<path d="M12.767 25.754c2.772 0 5.329-0.897 7.421-2.391l7.869 7.869c0.365 0.365 0.847 0.548 1.361 0.548 1.079 0 1.843-0.83 1.843-1.893 0-0.498-0.166-0.979-0.531-1.328l-7.819-7.836c1.644-2.158 2.623-4.831 2.623-7.736 0-7.022-5.744-12.767-12.767-12.767-7.006 0-12.767 5.728-12.767 12.767 0 7.023 5.744 12.767 12.767 12.767zM12.767 22.998c-5.479 0-10.011-4.532-10.011-10.011s4.532-10.011 10.011-10.011c5.479 0 10.011 4.532 10.011 10.011s-4.532 10.011-10.011 10.011z"></path>
</symbol>

<symbol id="icon-Component" viewBox="0 0 76 32">
<path d="M-2.54-9.651h81.27v46.73h-81.27v-46.73z"></path>
</symbol>



<symbol id="icon-cancel" viewBox="0 0 32 32">
<path  d="M16 2.667c-7.373 0-13.333 5.96-13.333 13.333s5.96 13.333 13.333 13.333c7.373 0 13.333-5.96 13.333-13.333s-5.96-13.333-13.333-13.333zM16 26.667c-5.88 0-10.667-4.787-10.667-10.667s4.787-10.667 10.667-10.667c5.88 0 10.667 4.787 10.667 10.667s-4.787 10.667-10.667 10.667zM16 14.12l4.787-4.787 1.88 1.88-4.787 4.787 4.787 4.787-1.88 1.88-4.787-4.787-4.787 4.787-1.88-1.88 4.787-4.787-4.787-4.787 1.88-1.88 4.787 4.787z"></path>
</symbol>
 <symbol id="icon-x-close" viewBox="0 0 32 32">
<path stroke-linejoin="round" stroke-linecap="round" stroke-miterlimit="4" stroke-width="2.6667" d="M24 8l-16 16"></path>
<path stroke-linejoin="round" stroke-linecap="round" stroke-miterlimit="4" stroke-width="2.6667" d="M8 8l16 16"></path>
</symbol>


<symbol id="icon-info" viewBox="0 0 32 32">
<path fill="#63a6f7" style="fill: var(--color1, #63a6f7)" d="M14.669 9.335h2.667v2.667h-2.667v-2.667zM14.669 14.669h2.667v8h-2.667v-8zM16.002 2.669c-7.36 0-13.333 5.973-13.333 13.333s5.973 13.333 13.333 13.333c7.36 0 13.333-5.973 13.333-13.333s-5.973-13.333-13.333-13.333zM16.002 26.669c-5.88 0-10.667-4.787-10.667-10.667s4.787-10.667 10.667-10.667c5.88 0 10.667 4.787 10.667 10.667s-4.787 10.667-10.667 10.667z"></path>
</symbol>

<symbol id="icon-navigate_next" viewBox="0 0 32 32">
<path  d="M13.36 8l-1.88 1.88 6.107 6.12-6.107 6.12 1.88 1.88 8-8-8-8z"></path>
</symbol>

<symbol id="icon-place" viewBox="0 0 26 32">
<path fill="none" stroke="#7e7e7e" style="stroke: var(--color1, #7e7e7e)" stroke-linejoin="miter" stroke-linecap="butt" stroke-miterlimit="4" stroke-width="2.8235" d="M13.177 28.613c0 0 10.607-9.428 10.607-16.499 0-5.858-4.749-10.607-10.607-10.607s-10.607 4.749-10.607 10.607c0 7.071 10.607 16.499 10.607 16.499z"></path>
<path fill="none" stroke="#7e7e7e" style="stroke: var(--color1, #7e7e7e)" stroke-linejoin="miter" stroke-linecap="butt" stroke-miterlimit="4" stroke-width="2.8235" d="M16.565 11.672c0 1.871-1.517 3.388-3.388 3.388s-3.388-1.517-3.388-3.388c0-1.871 1.517-3.388 3.388-3.388s3.388 1.517 3.388 3.388z"></path>
</symbol>


<symbol id="icon-calendar" viewBox="0 0 32 32">
<path fill="none" stroke="#7e7e7e" style="stroke: var(--color1, #7e7e7e)" stroke-linejoin="round" stroke-linecap="round" stroke-miterlimit="4" stroke-width="3" d="M8.714 9.853h14.458M7.728 1.656v2.459M23.969 1.656v2.459M28.75 8.615v17.229c0 2.485-2.015 4.5-4.5 4.5h-16.5c-2.485 0-4.5-2.015-4.5-4.5v-17.229c0-2.485 2.015-4.5 4.5-4.5h16.5c2.485 0 4.5 2.015 4.5 4.5z"></path>
</symbol>


<symbol id="icon-ticket" viewBox="0 0 32 32">
<path fill="none" stroke="#7e7e7e" style="stroke: var(--color1, #7e7e7e)" stroke-linejoin="round" stroke-linecap="round" stroke-miterlimit="4" stroke-width="2.6667" d="M19.2 20.187v-0.259M19.199 16.183v-0.258M19.199 12.196v-0.258M6.682 4.613h9.319c0.053 1.887 1.599 3.4 3.499 3.4s3.446-1.513 3.498-3.4h2.319c2.807 0 5.082 2.275 5.082 5.082v12.609c0 2.807-2.275 5.082-5.082 5.082h-2.319c-0.053-1.887-1.599-3.4-3.498-3.4s-3.446 1.513-3.499 3.4h-9.319c-2.807 0-5.082-2.276-5.082-5.082l-0-12.609c0-2.807 2.275-5.082 5.082-5.082z"></path>
</symbol>

<symbol id="icon-check" viewBox="0 0 32 32">
<path fill="#007aff" style="fill: var(--color2, #007aff)" d="M28 16c0 6.627-5.373 12-12 12s-12-5.373-12-12c0-6.627 5.373-12 12-12s12 5.373 12 12z"></path>
<path fill="none" stroke="#fff" style="stroke: var(--color3, #fff)" stroke-linejoin="miter" stroke-linecap="butt" stroke-miterlimit="4" stroke-width="1.3333" d="M12 16.667l3.333 2.667 6-6.667"></path>
</symbol>

<symbol id="icon-logo" viewBox="0 0 64 32">
<path d="M5.507 4.907c0 0.015-0.005 1.88-0.015 4.148l-0.010 4.113 0.447 0.089c1.121 0.223 1.94 0.958 2.302 2.069 0.159 0.481 0.149 1.225-0.025 1.731-0.283 0.863-0.987 1.573-1.841 1.87-0.198 0.069-0.456 0.124-0.58 0.124-0.119 0-0.238 0.030-0.273 0.069-0.040 0.050-0.050 1.181-0.045 4.177l0.015 4.113 1.141 0.010c0.63 0 12.438 0.015 26.245 0.025l25.104 0.015 0.015-4.148 0.010-4.143-0.357-0.060c-0.769-0.119-1.478-0.541-1.935-1.146-0.62-0.819-0.749-1.87-0.357-2.868 0.069-0.189 0.194-0.422 0.273-0.521s0.144-0.198 0.144-0.213c0-0.015 0.129-0.154 0.288-0.303 0.397-0.372 0.918-0.635 1.488-0.744l0.456-0.089v-0.496c0.005-0.278 0.010-2.123 0.020-4.108 0.010-2.61 0-3.622-0.040-3.656-0.065-0.050-52.47-0.114-52.47-0.060zM57.456 5.482c0.055 0.035 0.060 7.164 0.005 7.253-0.020 0.035-0.124 0.079-0.233 0.104-1.171 0.273-2.183 1.26-2.505 2.441-0.337 1.22 0.005 2.491 0.913 3.384 0.377 0.372 0.784 0.625 1.31 0.804 0.208 0.074 0.417 0.154 0.456 0.174 0.065 0.035 0.074 0.491 0.069 3.646 0 1.98-0.015 3.612-0.030 3.627-0.035 0.035-31.067 0.030-42.285-0.005-5.021-0.020-9.139-0.050-9.153-0.069-0.015-0.025-0.015-1.667 0-3.651l0.025-3.612 0.322-0.104c0.739-0.233 1.315-0.61 1.741-1.136 1.578-1.95 0.65-4.852-1.766-5.537l-0.298-0.084-0.015-3.592c-0.005-1.975 0-3.622 0.015-3.661 0.025-0.060 3.686-0.064 25.704-0.040 14.12 0.020 25.694 0.045 25.724 0.060z"></path>
<path d="M10.954 5.854c-0.069 0.050-0.154 0.164-0.189 0.248-0.129 0.313 0.203 0.68 0.561 0.61 0.169-0.035 0.382-0.278 0.382-0.447 0-0.397-0.456-0.645-0.754-0.412z"></path>
<path d="M11.034 7.74c-0.149 0.060-0.318 0.288-0.318 0.432 0 0.268 0.248 0.511 0.521 0.511 0.159 0 0.407-0.218 0.447-0.397 0.045-0.198-0.089-0.437-0.298-0.526-0.194-0.079-0.208-0.079-0.352-0.020z"></path>
<path d="M22.4 8.216c-0.536 0.109-0.69 0.154-0.987 0.303-0.491 0.248-0.868 0.625-1.116 1.121-0.258 0.506-0.352 0.948-0.352 1.652 0 1.637 0.843 2.768 2.257 3.021 2.173 0.387 3.696-0.982 3.582-3.22-0.015-0.303-0.064-0.685-0.109-0.843-0.293-1.086-1.062-1.801-2.143-1.989-0.362-0.065-0.908-0.089-1.131-0.045zM23.606 9.322c0.432 0.223 0.774 0.7 0.898 1.25 0.074 0.327 0.064 1.126-0.020 1.449-0.154 0.595-0.461 1.012-0.918 1.235-0.189 0.094-0.303 0.114-0.719 0.114-0.456 0-0.516-0.010-0.764-0.149-0.665-0.367-1.042-1.33-0.903-2.317 0.119-0.858 0.491-1.429 1.077-1.652 0.303-0.114 1.077-0.074 1.349 0.069z"></path>
<path d="M14.358 8.365c-0.283 0.139-0.352 0.511-0.149 0.749l0.119 0.139 1.697 0.030v2.282c0 2.446 0.005 2.52 0.253 2.694 0.184 0.124 0.412 0.149 0.6 0.060 0.322-0.154 0.308-0.065 0.337-2.659l0.025-2.357 0.819-0.025c0.451-0.015 0.858-0.045 0.903-0.065 0.045-0.025 0.119-0.119 0.164-0.213 0.094-0.203 0.040-0.442-0.129-0.595-0.099-0.089-0.233-0.094-2.297-0.104-1.895-0.015-2.208-0.005-2.342 0.065z"></path>
<path d="M27.664 8.335c-0.074 0.025-0.179 0.079-0.233 0.129-0.179 0.159-0.198 0.511-0.184 3.026 0.015 2.337 0.020 2.431 0.114 2.6 0.213 0.357 0.734 0.377 0.977 0.035 0.109-0.149 0.114-0.208 0.129-1.166l0.015-1.002h0.704c1.414-0.005 2.059-0.253 2.441-0.948 0.144-0.258 0.149-0.293 0.149-0.888 0-0.531-0.015-0.655-0.104-0.848-0.238-0.511-0.69-0.834-1.315-0.933-0.377-0.065-2.491-0.065-2.694-0.005zM29.673 9.223c0.6 0.079 0.848 0.278 0.918 0.739 0.069 0.481-0.189 0.883-0.655 0.997-0.114 0.030-0.491 0.055-0.834 0.055h-0.625v-1.836h0.437c0.238 0.005 0.58 0.020 0.759 0.045z"></path>
<path d="M10.954 9.764c-0.407 0.248-0.213 0.883 0.268 0.873 0.248-0.010 0.427-0.174 0.471-0.432 0.025-0.159 0.005-0.203-0.149-0.357-0.198-0.198-0.372-0.223-0.59-0.084z"></path>
<path d="M10.949 11.713c-0.109 0.065-0.233 0.303-0.233 0.456 0 0.069 0.065 0.194 0.144 0.278 0.352 0.377 0.962 0.025 0.799-0.461-0.030-0.094-0.109-0.203-0.174-0.248-0.134-0.089-0.402-0.104-0.536-0.025z"></path>
<path d="M11.034 13.638c-0.159 0.069-0.318 0.298-0.318 0.456 0 0.189 0.218 0.432 0.427 0.471 0.213 0.040 0.387-0.069 0.501-0.303 0.065-0.139 0.069-0.194 0.020-0.318-0.035-0.079-0.104-0.184-0.149-0.223-0.109-0.099-0.347-0.139-0.481-0.084z"></path>
<path d="M10.935 15.668c-0.372 0.298-0.198 0.853 0.263 0.853 0.223 0 0.342-0.069 0.442-0.253 0.094-0.189 0.060-0.367-0.119-0.556-0.154-0.159-0.422-0.179-0.585-0.045z"></path>
<path d="M11.034 17.563c-0.149 0.060-0.318 0.288-0.318 0.432 0 0.442 0.541 0.665 0.834 0.347 0.228-0.253 0.164-0.595-0.144-0.759-0.154-0.079-0.223-0.084-0.372-0.020z"></path>
<path d="M20.753 17.687c-0.084 0.035-0.198 0.129-0.248 0.203-0.084 0.129-0.089 0.318-0.104 2.724-0.015 2.868-0.015 2.887 0.283 3.086 0.198 0.134 0.352 0.144 0.571 0.040 0.337-0.159 0.327-0.069 0.327-3.026 0-2.942 0.010-2.868-0.318-3.021-0.203-0.094-0.303-0.099-0.511-0.005z"></path>
<path d="M25.377 17.692c-0.422 0.084-0.958 0.342-1.28 0.62-1.24 1.072-1.295 3.527-0.109 4.738 0.456 0.466 0.958 0.68 1.727 0.744 1.151 0.094 2.158-0.407 2.565-1.28 0.273-0.58 0.238-0.982-0.099-1.156-0.318-0.164-0.61-0.010-0.769 0.407-0.184 0.491-0.496 0.834-0.888 0.982-0.347 0.134-1.027 0.089-1.33-0.089-0.551-0.322-0.834-0.962-0.834-1.895 0-0.779 0.203-1.379 0.605-1.766 0.283-0.283 0.58-0.392 1.042-0.392 0.59 0 0.908 0.198 1.31 0.824 0.293 0.456 0.372 0.516 0.655 0.516 0.318 0 0.526-0.308 0.461-0.675-0.134-0.719-0.913-1.389-1.851-1.578-0.456-0.094-0.739-0.094-1.206 0z"></path>
<path d="M30.388 17.647c-0.055 0.015-0.139 0.060-0.194 0.109-0.223 0.194-0.228 0.258-0.228 2.957 0 2.823 0 2.813 0.308 3.002 0.194 0.119 0.327 0.124 0.561 0.030 0.278-0.119 0.322-0.268 0.322-1.131v-0.764l0.337-0.318c0.184-0.179 0.412-0.397 0.511-0.486l0.179-0.164 0.67 1.032c0.367 0.566 0.764 1.181 0.878 1.364 0.238 0.377 0.367 0.476 0.665 0.516 0.243 0.035 0.476-0.060 0.6-0.238 0.198-0.283 0.084-0.526-0.972-2.034-0.521-0.744-0.953-1.379-0.967-1.409-0.010-0.030 0.179-0.243 0.417-0.471 1.022-0.972 1.24-1.206 1.27-1.379 0.074-0.367-0.288-0.704-0.685-0.63-0.184 0.035-0.491 0.332-2.208 2.143-0.313 0.332-0.6 0.605-0.63 0.61-0.050 0.005-0.064-0.258-0.064-1.171 0-1.136-0.005-1.181-0.109-1.34-0.154-0.218-0.377-0.298-0.66-0.228z"></path>
<path d="M14.358 17.791c-0.298 0.144-0.362 0.531-0.124 0.769l0.144 0.144h1.647v2.282c0 2.525 0 2.54 0.308 2.729 0.194 0.119 0.342 0.124 0.556 0.025 0.308-0.149 0.303-0.069 0.327-2.654l0.025-2.357 0.819-0.025c0.451-0.015 0.858-0.045 0.903-0.064 0.079-0.045 0.238-0.322 0.238-0.432 0-0.139-0.169-0.362-0.322-0.427-0.263-0.109-4.296-0.099-4.52 0.010z"></path>
<path d="M36.936 17.786c-0.109 0.040-0.203 0.074-0.203 0.074-0.005 0-0.045 0.074-0.089 0.169-0.069 0.149-0.079 0.471-0.079 2.679 0 2.838-0.005 2.783 0.342 2.922 0.179 0.074 0.447 0.084 2.009 0.084 1.191 0 1.855-0.020 1.96-0.055 0.303-0.104 0.387-0.551 0.149-0.769-0.094-0.089-0.223-0.094-1.677-0.119l-1.568-0.025v-1.687l1.424-0.025c1.593-0.030 1.563-0.020 1.612-0.382 0.020-0.159 0.005-0.223-0.099-0.342l-0.124-0.144-2.838-0.030v-1.483l1.364-0.005c0.749-0.005 1.389-0.015 1.414-0.020 0.030-0.005 0.094-0.015 0.154-0.020 0.154-0.010 0.392-0.273 0.392-0.437 0-0.074-0.055-0.208-0.119-0.288l-0.119-0.149-1.855-0.010c-1.523-0.010-1.885 0-2.049 0.060z"></path>
<path d="M42.24 17.791c-0.283 0.139-0.352 0.511-0.149 0.749l0.119 0.139 1.697 0.030v2.282c0 2.52 0 2.535 0.308 2.724 0.194 0.119 0.342 0.124 0.556 0.025 0.308-0.149 0.303-0.069 0.327-2.654l0.025-2.357 0.819-0.025c0.893-0.025 1.002-0.060 1.087-0.313 0.069-0.189 0.020-0.402-0.129-0.541l-0.124-0.114-2.188-0.010c-1.905-0.015-2.213-0.005-2.347 0.064z"></path>
<path d="M10.964 19.562c-0.417 0.208-0.253 0.878 0.213 0.878 0.248 0 0.318-0.035 0.437-0.228 0.089-0.144 0.094-0.194 0.045-0.342-0.104-0.318-0.407-0.451-0.695-0.308z"></path>
<path d="M11.009 21.507c-0.268 0.144-0.352 0.407-0.223 0.66 0.218 0.422 0.873 0.273 0.873-0.198 0-0.258-0.074-0.382-0.273-0.466-0.203-0.084-0.213-0.084-0.377 0.005z"></path>
<path d="M10.964 23.496c-0.288 0.198-0.332 0.456-0.119 0.709 0.109 0.129 0.164 0.154 0.347 0.154 0.298 0 0.466-0.159 0.466-0.442 0-0.377-0.402-0.62-0.695-0.422z"></path>
<path d="M10.86 25.545c-0.382 0.387 0.084 0.997 0.566 0.739 0.169-0.089 0.228-0.198 0.233-0.422 0-0.432-0.486-0.625-0.799-0.318z"></path>
</symbol>

</defs>
</svg>
