<svg aria-hidden="true" style="position: absolute; width: 0; height: 0; overflow: hidden;" version="1.1" xmlns="http://www.w3.org/2000/svg" xmlns:xlink="http://www.w3.org/1999/xlink">
<defs>

<symbol id="icon-shop-cart" viewBox="0 0 32 32">
<path d="M32 5.333v1.333h-10.667v-1.333h10.667zM12 29.333c0 1.467-1.2 2.667-2.667 2.667s-2.667-1.2-2.667-2.667c0-1.467 1.2-2.667 2.667-2.667s2.667 1.2 2.667 2.667zM10.667 29.333c0-0.733-0.6-1.333-1.333-1.333s-1.333 0.6-1.333 1.333c0 0.733 0.6 1.333 1.333 1.333s1.333-0.6 1.333-1.333zM25.333 29.333c0 1.467-1.2 2.667-2.667 2.667s-2.667-1.2-2.667-2.667c0-1.467 1.2-2.667 2.667-2.667s2.667 1.2 2.667 2.667zM24 29.333c0-0.733-0.6-1.333-1.333-1.333s-1.333 0.6-1.333 1.333c0 0.733 0.6 1.333 1.333 1.333s1.333-0.6 1.333-1.333zM27.92 18.667h-20.080l-1.667-12h11.16v-1.333h-11.347l-0.347-2.453c-0.227-1.64-1.64-2.88-3.293-2.88h-2.347v1.333h2.347c1 0 1.84 0.747 1.987 1.72l2.693 19.4c0.227 1.64 1.64 2.88 3.307 2.88h16.347v-1.333h-16.36c-1 0-1.84-0.747-1.987-1.72l-0.32-2.28h20.987l1.867-9.333h-1.36l-1.6 8h0.013z"></path>
</symbol>


<symbol id="icon-search" viewBox="0 0 32 32">
<path d="M12.767 25.754c2.772 0 5.329-0.897 7.421-2.391l7.869 7.869c0.365 0.365 0.847 0.548 1.361 0.548 1.079 0 1.843-0.83 1.843-1.893 0-0.498-0.166-0.979-0.531-1.328l-7.819-7.836c1.644-2.158 2.623-4.831 2.623-7.736 0-7.022-5.744-12.767-12.767-12.767-7.006 0-12.767 5.728-12.767 12.767 0 7.023 5.744 12.767 12.767 12.767zM12.767 22.998c-5.479 0-10.011-4.532-10.011-10.011s4.532-10.011 10.011-10.011c5.479 0 10.011 4.532 10.011 10.011s-4.532 10.011-10.011 10.011z"></path>
</symbol>

<symbol id="icon-Component" viewBox="0 0 76 32">
<path d="M-2.54-9.651h81.27v46.73h-81.27v-46.73z"></path>
</symbol>



<symbol id="icon-cancel" viewBox="0 0 32 32">
<path  d="M16 2.667c-7.373 0-13.333 5.96-13.333 13.333s5.96 13.333 13.333 13.333c7.373 0 13.333-5.96 13.333-13.333s-5.96-13.333-13.333-13.333zM16 26.667c-5.88 0-10.667-4.787-10.667-10.667s4.787-10.667 10.667-10.667c5.88 0 10.667 4.787 10.667 10.667s-4.787 10.667-10.667 10.667zM16 14.12l4.787-4.787 1.88 1.88-4.787 4.787 4.787 4.787-1.88 1.88-4.787-4.787-4.787 4.787-1.88-1.88 4.787-4.787-4.787-4.787 1.88-1.88 4.787 4.787z"></path>
</symbol>
 <symbol id="icon-x-close" viewBox="0 0 32 32">
<path stroke-linejoin="round" stroke-linecap="round" stroke-miterlimit="4" stroke-width="2.6667" d="M24 8l-16 16"></path>
<path stroke-linejoin="round" stroke-linecap="round" stroke-miterlimit="4" stroke-width="2.6667" d="M8 8l16 16"></path>
</symbol>


<symbol id="icon-info" viewBox="0 0 32 32">
<path fill="#63a6f7" style="fill: var(--color1, #63a6f7)" d="M14.669 9.335h2.667v2.667h-2.667v-2.667zM14.669 14.669h2.667v8h-2.667v-8zM16.002 2.669c-7.36 0-13.333 5.973-13.333 13.333s5.973 13.333 13.333 13.333c7.36 0 13.333-5.973 13.333-13.333s-5.973-13.333-13.333-13.333zM16.002 26.669c-5.88 0-10.667-4.787-10.667-10.667s4.787-10.667 10.667-10.667c5.88 0 10.667 4.787 10.667 10.667s-4.787 10.667-10.667 10.667z"></path>
</symbol>

<symbol id="icon-navigate_next" viewBox="0 0 32 32">
<path  d="M13.36 8l-1.88 1.88 6.107 6.12-6.107 6.12 1.88 1.88 8-8-8-8z"></path>
</symbol>

<symbol id="icon-place" viewBox="0 0 26 32">
<path fill="none" stroke="#7e7e7e" style="stroke: var(--color1, #7e7e7e)" stroke-linejoin="miter" stroke-linecap="butt" stroke-miterlimit="4" stroke-width="2.8235" d="M13.177 28.613c0 0 10.607-9.428 10.607-16.499 0-5.858-4.749-10.607-10.607-10.607s-10.607 4.749-10.607 10.607c0 7.071 10.607 16.499 10.607 16.499z"></path>
<path fill="none" stroke="#7e7e7e" style="stroke: var(--color1, #7e7e7e)" stroke-linejoin="miter" stroke-linecap="butt" stroke-miterlimit="4" stroke-width="2.8235" d="M16.565 11.672c0 1.871-1.517 3.388-3.388 3.388s-3.388-1.517-3.388-3.388c0-1.871 1.517-3.388 3.388-3.388s3.388 1.517 3.388 3.388z"></path>
</symbol>


<symbol id="icon-calendar" viewBox="0 0 32 32">
<path fill="none" stroke="#7e7e7e" style="stroke: var(--color1, #7e7e7e)" stroke-linejoin="round" stroke-linecap="round" stroke-miterlimit="4" stroke-width="3" d="M8.714 9.853h14.458M7.728 1.656v2.459M23.969 1.656v2.459M28.75 8.615v17.229c0 2.485-2.015 4.5-4.5 4.5h-16.5c-2.485 0-4.5-2.015-4.5-4.5v-17.229c0-2.485 2.015-4.5 4.5-4.5h16.5c2.485 0 4.5 2.015 4.5 4.5z"></path>
</symbol>


<symbol id="icon-ticket" viewBox="0 0 32 32">
<path fill="none" stroke="#7e7e7e" style="stroke: var(--color1, #7e7e7e)" stroke-linejoin="round" stroke-linecap="round" stroke-miterlimit="4" stroke-width="2.6667" d="M19.2 20.187v-0.259M19.199 16.183v-0.258M19.199 12.196v-0.258M6.682 4.613h9.319c0.053 1.887 1.599 3.4 3.499 3.4s3.446-1.513 3.498-3.4h2.319c2.807 0 5.082 2.275 5.082 5.082v12.609c0 2.807-2.275 5.082-5.082 5.082h-2.319c-0.053-1.887-1.599-3.4-3.498-3.4s-3.446 1.513-3.499 3.4h-9.319c-2.807 0-5.082-2.276-5.082-5.082l-0-12.609c0-2.807 2.275-5.082 5.082-5.082z"></path>
</symbol>

<symbol id="icon-check" viewBox="0 0 32 32">
<path fill="#007aff" style="fill: var(--color2, #007aff)" d="M28 16c0 6.627-5.373 12-12 12s-12-5.373-12-12c0-6.627 5.373-12 12-12s12 5.373 12 12z"></path>
<path fill="none" stroke="#fff" style="stroke: var(--color3, #fff)" stroke-linejoin="miter" stroke-linecap="butt" stroke-miterlimit="4" stroke-width="1.3333" d="M12 16.667l3.333 2.667 6-6.667"></path>
</symbol>

<!-- <symbol id="icon-logo" viewBox="0 0 64 32">
<path d="M5.507 4.907c0 0.015-0.005 1.88-0.015 4.148l-0.010 4.113 0.447 0.089c1.121 0.223 1.94 0.958 2.302 2.069 0.159 0.481 0.149 1.225-0.025 1.731-0.283 0.863-0.987 1.573-1.841 1.87-0.198 0.069-0.456 0.124-0.58 0.124-0.119 0-0.238 0.030-0.273 0.069-0.040 0.050-0.050 1.181-0.045 4.177l0.015 4.113 1.141 0.010c0.63 0 12.438 0.015 26.245 0.025l25.104 0.015 0.015-4.148 0.010-4.143-0.357-0.060c-0.769-0.119-1.478-0.541-1.935-1.146-0.62-0.819-0.749-1.87-0.357-2.868 0.069-0.189 0.194-0.422 0.273-0.521s0.144-0.198 0.144-0.213c0-0.015 0.129-0.154 0.288-0.303 0.397-0.372 0.918-0.635 1.488-0.744l0.456-0.089v-0.496c0.005-0.278 0.010-2.123 0.020-4.108 0.010-2.61 0-3.622-0.040-3.656-0.065-0.050-52.47-0.114-52.47-0.060zM57.456 5.482c0.055 0.035 0.060 7.164 0.005 7.253-0.020 0.035-0.124 0.079-0.233 0.104-1.171 0.273-2.183 1.26-2.505 2.441-0.337 1.22 0.005 2.491 0.913 3.384 0.377 0.372 0.784 0.625 1.31 0.804 0.208 0.074 0.417 0.154 0.456 0.174 0.065 0.035 0.074 0.491 0.069 3.646 0 1.98-0.015 3.612-0.030 3.627-0.035 0.035-31.067 0.030-42.285-0.005-5.021-0.020-9.139-0.050-9.153-0.069-0.015-0.025-0.015-1.667 0-3.651l0.025-3.612 0.322-0.104c0.739-0.233 1.315-0.61 1.741-1.136 1.578-1.95 0.65-4.852-1.766-5.537l-0.298-0.084-0.015-3.592c-0.005-1.975 0-3.622 0.015-3.661 0.025-0.060 3.686-0.064 25.704-0.040 14.12 0.020 25.694 0.045 25.724 0.060z"></path>
<path d="M10.954 5.854c-0.069 0.050-0.154 0.164-0.189 0.248-0.129 0.313 0.203 0.68 0.561 0.61 0.169-0.035 0.382-0.278 0.382-0.447 0-0.397-0.456-0.645-0.754-0.412z"></path>
<path d="M11.034 7.74c-0.149 0.060-0.318 0.288-0.318 0.432 0 0.268 0.248 0.511 0.521 0.511 0.159 0 0.407-0.218 0.447-0.397 0.045-0.198-0.089-0.437-0.298-0.526-0.194-0.079-0.208-0.079-0.352-0.020z"></path>
<path d="M22.4 8.216c-0.536 0.109-0.69 0.154-0.987 0.303-0.491 0.248-0.868 0.625-1.116 1.121-0.258 0.506-0.352 0.948-0.352 1.652 0 1.637 0.843 2.768 2.257 3.021 2.173 0.387 3.696-0.982 3.582-3.22-0.015-0.303-0.064-0.685-0.109-0.843-0.293-1.086-1.062-1.801-2.143-1.989-0.362-0.065-0.908-0.089-1.131-0.045zM23.606 9.322c0.432 0.223 0.774 0.7 0.898 1.25 0.074 0.327 0.064 1.126-0.020 1.449-0.154 0.595-0.461 1.012-0.918 1.235-0.189 0.094-0.303 0.114-0.719 0.114-0.456 0-0.516-0.010-0.764-0.149-0.665-0.367-1.042-1.33-0.903-2.317 0.119-0.858 0.491-1.429 1.077-1.652 0.303-0.114 1.077-0.074 1.349 0.069z"></path>
<path d="M14.358 8.365c-0.283 0.139-0.352 0.511-0.149 0.749l0.119 0.139 1.697 0.030v2.282c0 2.446 0.005 2.52 0.253 2.694 0.184 0.124 0.412 0.149 0.6 0.060 0.322-0.154 0.308-0.065 0.337-2.659l0.025-2.357 0.819-0.025c0.451-0.015 0.858-0.045 0.903-0.065 0.045-0.025 0.119-0.119 0.164-0.213 0.094-0.203 0.040-0.442-0.129-0.595-0.099-0.089-0.233-0.094-2.297-0.104-1.895-0.015-2.208-0.005-2.342 0.065z"></path>
<path d="M27.664 8.335c-0.074 0.025-0.179 0.079-0.233 0.129-0.179 0.159-0.198 0.511-0.184 3.026 0.015 2.337 0.020 2.431 0.114 2.6 0.213 0.357 0.734 0.377 0.977 0.035 0.109-0.149 0.114-0.208 0.129-1.166l0.015-1.002h0.704c1.414-0.005 2.059-0.253 2.441-0.948 0.144-0.258 0.149-0.293 0.149-0.888 0-0.531-0.015-0.655-0.104-0.848-0.238-0.511-0.69-0.834-1.315-0.933-0.377-0.065-2.491-0.065-2.694-0.005zM29.673 9.223c0.6 0.079 0.848 0.278 0.918 0.739 0.069 0.481-0.189 0.883-0.655 0.997-0.114 0.030-0.491 0.055-0.834 0.055h-0.625v-1.836h0.437c0.238 0.005 0.58 0.020 0.759 0.045z"></path>
<path d="M10.954 9.764c-0.407 0.248-0.213 0.883 0.268 0.873 0.248-0.010 0.427-0.174 0.471-0.432 0.025-0.159 0.005-0.203-0.149-0.357-0.198-0.198-0.372-0.223-0.59-0.084z"></path>
<path d="M10.949 11.713c-0.109 0.065-0.233 0.303-0.233 0.456 0 0.069 0.065 0.194 0.144 0.278 0.352 0.377 0.962 0.025 0.799-0.461-0.030-0.094-0.109-0.203-0.174-0.248-0.134-0.089-0.402-0.104-0.536-0.025z"></path>
<path d="M11.034 13.638c-0.159 0.069-0.318 0.298-0.318 0.456 0 0.189 0.218 0.432 0.427 0.471 0.213 0.040 0.387-0.069 0.501-0.303 0.065-0.139 0.069-0.194 0.020-0.318-0.035-0.079-0.104-0.184-0.149-0.223-0.109-0.099-0.347-0.139-0.481-0.084z"></path>
<path d="M10.935 15.668c-0.372 0.298-0.198 0.853 0.263 0.853 0.223 0 0.342-0.069 0.442-0.253 0.094-0.189 0.060-0.367-0.119-0.556-0.154-0.159-0.422-0.179-0.585-0.045z"></path>
<path d="M11.034 17.563c-0.149 0.060-0.318 0.288-0.318 0.432 0 0.442 0.541 0.665 0.834 0.347 0.228-0.253 0.164-0.595-0.144-0.759-0.154-0.079-0.223-0.084-0.372-0.020z"></path>
<path d="M20.753 17.687c-0.084 0.035-0.198 0.129-0.248 0.203-0.084 0.129-0.089 0.318-0.104 2.724-0.015 2.868-0.015 2.887 0.283 3.086 0.198 0.134 0.352 0.144 0.571 0.040 0.337-0.159 0.327-0.069 0.327-3.026 0-2.942 0.010-2.868-0.318-3.021-0.203-0.094-0.303-0.099-0.511-0.005z"></path>
<path d="M25.377 17.692c-0.422 0.084-0.958 0.342-1.28 0.62-1.24 1.072-1.295 3.527-0.109 4.738 0.456 0.466 0.958 0.68 1.727 0.744 1.151 0.094 2.158-0.407 2.565-1.28 0.273-0.58 0.238-0.982-0.099-1.156-0.318-0.164-0.61-0.010-0.769 0.407-0.184 0.491-0.496 0.834-0.888 0.982-0.347 0.134-1.027 0.089-1.33-0.089-0.551-0.322-0.834-0.962-0.834-1.895 0-0.779 0.203-1.379 0.605-1.766 0.283-0.283 0.58-0.392 1.042-0.392 0.59 0 0.908 0.198 1.31 0.824 0.293 0.456 0.372 0.516 0.655 0.516 0.318 0 0.526-0.308 0.461-0.675-0.134-0.719-0.913-1.389-1.851-1.578-0.456-0.094-0.739-0.094-1.206 0z"></path>
<path d="M30.388 17.647c-0.055 0.015-0.139 0.060-0.194 0.109-0.223 0.194-0.228 0.258-0.228 2.957 0 2.823 0 2.813 0.308 3.002 0.194 0.119 0.327 0.124 0.561 0.030 0.278-0.119 0.322-0.268 0.322-1.131v-0.764l0.337-0.318c0.184-0.179 0.412-0.397 0.511-0.486l0.179-0.164 0.67 1.032c0.367 0.566 0.764 1.181 0.878 1.364 0.238 0.377 0.367 0.476 0.665 0.516 0.243 0.035 0.476-0.060 0.6-0.238 0.198-0.283 0.084-0.526-0.972-2.034-0.521-0.744-0.953-1.379-0.967-1.409-0.010-0.030 0.179-0.243 0.417-0.471 1.022-0.972 1.24-1.206 1.27-1.379 0.074-0.367-0.288-0.704-0.685-0.63-0.184 0.035-0.491 0.332-2.208 2.143-0.313 0.332-0.6 0.605-0.63 0.61-0.050 0.005-0.064-0.258-0.064-1.171 0-1.136-0.005-1.181-0.109-1.34-0.154-0.218-0.377-0.298-0.66-0.228z"></path>
<path d="M14.358 17.791c-0.298 0.144-0.362 0.531-0.124 0.769l0.144 0.144h1.647v2.282c0 2.525 0 2.54 0.308 2.729 0.194 0.119 0.342 0.124 0.556 0.025 0.308-0.149 0.303-0.069 0.327-2.654l0.025-2.357 0.819-0.025c0.451-0.015 0.858-0.045 0.903-0.064 0.079-0.045 0.238-0.322 0.238-0.432 0-0.139-0.169-0.362-0.322-0.427-0.263-0.109-4.296-0.099-4.52 0.010z"></path>
<path d="M36.936 17.786c-0.109 0.040-0.203 0.074-0.203 0.074-0.005 0-0.045 0.074-0.089 0.169-0.069 0.149-0.079 0.471-0.079 2.679 0 2.838-0.005 2.783 0.342 2.922 0.179 0.074 0.447 0.084 2.009 0.084 1.191 0 1.855-0.020 1.96-0.055 0.303-0.104 0.387-0.551 0.149-0.769-0.094-0.089-0.223-0.094-1.677-0.119l-1.568-0.025v-1.687l1.424-0.025c1.593-0.030 1.563-0.020 1.612-0.382 0.020-0.159 0.005-0.223-0.099-0.342l-0.124-0.144-2.838-0.030v-1.483l1.364-0.005c0.749-0.005 1.389-0.015 1.414-0.020 0.030-0.005 0.094-0.015 0.154-0.020 0.154-0.010 0.392-0.273 0.392-0.437 0-0.074-0.055-0.208-0.119-0.288l-0.119-0.149-1.855-0.010c-1.523-0.010-1.885 0-2.049 0.060z"></path>
<path d="M42.24 17.791c-0.283 0.139-0.352 0.511-0.149 0.749l0.119 0.139 1.697 0.030v2.282c0 2.52 0 2.535 0.308 2.724 0.194 0.119 0.342 0.124 0.556 0.025 0.308-0.149 0.303-0.069 0.327-2.654l0.025-2.357 0.819-0.025c0.893-0.025 1.002-0.060 1.087-0.313 0.069-0.189 0.020-0.402-0.129-0.541l-0.124-0.114-2.188-0.010c-1.905-0.015-2.213-0.005-2.347 0.064z"></path>
<path d="M10.964 19.562c-0.417 0.208-0.253 0.878 0.213 0.878 0.248 0 0.318-0.035 0.437-0.228 0.089-0.144 0.094-0.194 0.045-0.342-0.104-0.318-0.407-0.451-0.695-0.308z"></path>
<path d="M11.009 21.507c-0.268 0.144-0.352 0.407-0.223 0.66 0.218 0.422 0.873 0.273 0.873-0.198 0-0.258-0.074-0.382-0.273-0.466-0.203-0.084-0.213-0.084-0.377 0.005z"></path>
<path d="M10.964 23.496c-0.288 0.198-0.332 0.456-0.119 0.709 0.109 0.129 0.164 0.154 0.347 0.154 0.298 0 0.466-0.159 0.466-0.442 0-0.377-0.402-0.62-0.695-0.422z"></path>
<path d="M10.86 25.545c-0.382 0.387 0.084 0.997 0.566 0.739 0.169-0.089 0.228-0.198 0.233-0.422 0-0.432-0.486-0.625-0.799-0.318z"></path>
</symbol> -->

<symbol id="icon-logo" viewBox="0 0 82 32">
<path d="M0.042 0.022c-0.021 0.021-0.042 2.671-0.042 5.897v5.855h0.155c0.408 0 1.343 0.253 1.877 0.513 1.054 0.506 1.828 1.35 2.235 2.439 0.232 0.612 0.246 1.694 0.028 2.39-0.274 0.886-1.033 1.806-1.891 2.313-0.59 0.351-1.448 0.64-1.891 0.64-0.183 0-0.38 0.028-0.422 0.056-0.070 0.042-0.091 1.335-0.091 5.911 0 3.226 0.007 5.869 0.014 5.876 0.014 0.007 18.416 0.028 40.895 0.042l40.874 0.028 0.021-5.876 0.014-5.883-0.471-0.049c-0.605-0.063-1.659-0.436-2.102-0.745-0.309-0.211-1.005-0.872-1.188-1.125-0.162-0.225-0.366-0.619-0.527-1.012-0.155-0.366-0.176-0.534-0.176-1.23 0-0.71 0.028-0.865 0.197-1.307 0.633-1.631 2.010-2.643 3.915-2.882 0.176-0.021 0.324-0.049 0.331-0.056 0.049-0.049 0.021-11.668-0.028-11.71-0.063-0.063-81.671-0.148-81.728-0.084zM41.739 0.767c21.544 0.021 39.201 0.056 39.243 0.077 0.035 0.028 0.063 2.024 0.063 5.124 0 4.281-0.014 5.096-0.098 5.166-0.056 0.049-0.303 0.134-0.548 0.197-2.116 0.527-3.726 2.334-3.873 4.344-0.105 1.35 0.344 2.566 1.322 3.585 0.752 0.78 1.539 1.202 3.043 1.624 0.063 0.014 0.084 0.281 0.084 0.991 0.007 6.15-0.014 9.271-0.056 9.314-0.098 0.098-79.759 0.049-80.061-0.049-0.127-0.042-0.119-10.185 0.007-10.284 0.049-0.042 0.288-0.127 0.541-0.197 1.919-0.52 3.374-1.954 3.761-3.704 0.358-1.624-0.169-3.255-1.441-4.428-0.64-0.598-1.223-0.928-2.038-1.188-0.365-0.119-0.71-0.232-0.766-0.26-0.091-0.042-0.098-0.787-0.084-5.145 0.007-2.798 0.035-5.11 0.063-5.138 0.042-0.042 1.406-0.112 1.596-0.077 0.042 0.007 17.699 0.028 39.243 0.049z"></path>
<path d="M7.711 1.372c-0.098 0.077-0.218 0.253-0.26 0.387-0.105 0.309 0.056 0.64 0.38 0.773 0.281 0.119 0.513 0.070 0.766-0.162 0.583-0.548-0.253-1.49-0.886-0.998z"></path>
<path d="M7.802 4.099c-0.471 0.232-0.527 0.766-0.12 1.111 0.506 0.429 1.279-0.112 1.061-0.731-0.134-0.373-0.59-0.562-0.942-0.38z"></path>
<path d="M24.602 5.175c-0.928 0.134-1.905 0.661-2.411 1.286-0.562 0.71-0.822 1.589-0.822 2.769 0.007 2.158 1.005 3.522 2.924 4 0.703 0.169 2.214 0.169 2.91-0.007 1.497-0.38 2.404-1.244 2.791-2.657 0.155-0.555 0.169-2.024 0.028-2.587-0.358-1.462-1.427-2.46-2.973-2.769-0.576-0.12-1.778-0.134-2.446-0.035zM26.31 7.094c0.464 0.141 0.731 0.358 0.949 0.766 0.176 0.344 0.19 0.422 0.19 1.314 0 1.082-0.070 1.357-0.436 1.764-0.64 0.71-2.137 0.626-2.65-0.148-0.281-0.429-0.337-0.738-0.309-1.729 0.021-0.879 0.028-0.935 0.232-1.258 0.26-0.415 0.485-0.59 0.928-0.71s0.703-0.119 1.097 0z"></path>
<path d="M12.301 6.187v1.019l1.357 0.014 1.35 0.021 0.021 3.037 0.014 3.044h2.601v-6.115h2.671v-2.038h-8.013v1.019z"></path>
<path d="M32.123 9.245v4.077h2.601l0.014-1.286 0.021-1.279 1.3-0.035c1.237-0.035 1.322-0.049 1.729-0.232 0.541-0.253 1.019-0.731 1.272-1.279 0.155-0.344 0.197-0.548 0.218-1.097 0.056-1.392-0.471-2.32-1.589-2.776-0.394-0.162-0.443-0.169-2.98-0.169h-2.587v4.077zM36.235 7.164c0.302 0.127 0.408 0.33 0.408 0.808 0 0.344-0.028 0.408-0.225 0.583-0.218 0.197-0.239 0.204-0.942 0.183l-0.717-0.021-0.021-0.731c-0.007-0.408 0-0.78 0.014-0.829 0.049-0.127 1.167-0.127 1.483 0.007z"></path>
<path d="M7.655 6.981c-0.162 0.148-0.218 0.26-0.225 0.45-0.021 0.682 0.745 0.984 1.181 0.464 0.253-0.295 0.232-0.576-0.063-0.872-0.302-0.302-0.583-0.316-0.893-0.042z"></path>
<path d="M7.683 9.701c-0.183 0.127-0.33 0.541-0.267 0.738 0.162 0.506 0.766 0.654 1.16 0.281 0.204-0.197 0.225-0.246 0.19-0.513-0.049-0.38-0.302-0.612-0.668-0.612-0.148 0-0.33 0.049-0.415 0.105z"></path>
<path d="M7.837 12.401c-0.633 0.274-0.527 1.181 0.155 1.307 0.619 0.113 1.026-0.71 0.562-1.153-0.183-0.169-0.513-0.239-0.717-0.155z"></path>
<path d="M7.641 15.318c-0.232 0.218-0.302 0.478-0.19 0.752 0.119 0.274 0.323 0.415 0.633 0.415s0.513-0.141 0.633-0.415c0.267-0.654-0.562-1.23-1.075-0.752z"></path>
<path d="M7.908 17.94c-0.373 0.091-0.612 0.562-0.464 0.928 0.267 0.633 1.209 0.485 1.314-0.211 0.063-0.422-0.415-0.829-0.851-0.717z"></path>
<path d="M30.26 18.495c-0.077 0.014-0.316 0.063-0.527 0.105-0.668 0.134-1.343 0.499-1.785 0.984-0.471 0.506-0.619 0.78-0.829 1.518-0.225 0.794-0.225 2.207 0.007 3.030 0.457 1.631 1.659 2.467 3.711 2.594 1.771 0.098 3.226-0.527 3.845-1.666 0.19-0.344 0.387-1.118 0.394-1.497v-0.19h-2.376l-0.070 0.316c-0.162 0.766-0.71 1.132-1.61 1.075-0.647-0.042-0.935-0.225-1.195-0.752-0.162-0.33-0.19-0.492-0.218-1.188-0.070-1.722 0.38-2.425 1.532-2.425 0.534 0 0.794 0.112 1.111 0.471 0.19 0.218 0.253 0.394 0.316 0.886 0.014 0.091 0.218 0.105 1.265 0.127l1.244 0.014v-0.197c0-0.408-0.162-1.047-0.365-1.476-0.415-0.836-1.258-1.427-2.397-1.659-0.485-0.098-1.687-0.141-2.052-0.070z"></path>
<path d="M68.182 18.53c-1.089 0.176-1.933 0.682-2.284 1.364-0.267 0.52-0.331 1.3-0.141 1.856 0.316 0.949 1.125 1.399 3.473 1.912 0.858 0.19 1.16 0.358 1.188 0.675 0.028 0.309-0.204 0.45-0.822 0.499-0.998 0.070-1.511-0.155-1.595-0.696l-0.050-0.274h-2.46l0.049 0.471c0.169 1.638 1.42 2.383 3.979 2.369 0.984-0.007 1.146-0.021 1.666-0.19 0.836-0.281 1.35-0.682 1.652-1.293 0.218-0.443 0.232-0.52 0.232-1.188 0-0.661-0.014-0.724-0.211-1.054-0.443-0.703-1.097-1.026-2.959-1.434-1.336-0.288-1.652-0.464-1.554-0.858 0.078-0.288 0.457-0.429 1.103-0.394 0.471 0.021 0.577 0.049 0.731 0.19 0.105 0.098 0.211 0.274 0.239 0.387l0.056 0.218 1.223 0.021 1.216 0.014-0.050-0.394c-0.133-1.146-0.963-1.898-2.39-2.172-0.59-0.112-1.673-0.127-2.292-0.028z"></path>
<path d="M12.301 19.542v1.019l1.357 0.014 1.35 0.021 0.021 3.037 0.014 3.044h2.601v-6.115h2.671v-2.038h-8.013v1.019z"></path>
<path d="M22.212 22.6v4.077h2.601v-8.154h-2.601v4.077z"></path>
<path d="M37.114 22.6v4.077h2.65l-0.021-0.766c-0.007-0.415 0-0.836 0.021-0.928 0.021-0.112 0.267-0.351 0.689-0.682 0.358-0.274 0.682-0.506 0.71-0.506 0.035 0.007 0.429 0.647 0.879 1.427l0.808 1.42 1.525 0.021c0.836 0.007 1.525-0.007 1.525-0.042 0-0.028-0.12-0.246-0.274-0.478-0.724-1.111-2.488-3.943-2.559-4.084-0.056-0.134-0.042-0.19 0.070-0.323 0.337-0.38 2.601-3.044 2.65-3.128 0.042-0.063-0.288-0.084-1.553-0.084h-1.603l-1.399 1.722c-0.766 0.949-1.413 1.708-1.434 1.687s-0.049-0.787-0.056-1.708l-0.021-1.666-1.3-0.021-1.307-0.014v4.077z"></path>
<path d="M47.587 22.6v4.077h7.099v-1.968h-4.498v-1.195h3.796v-1.898h-3.803l0.021-0.583 0.021-0.576 2.2-0.021 2.193-0.014v-1.898h-7.029v4.077z"></path>
<path d="M56.092 19.542v1.019h2.671v2.945c0 1.624 0.021 2.994 0.042 3.058 0.035 0.098 0.225 0.112 1.335 0.112h1.293v-6.115h2.671v-2.038h-8.013v1.019z"></path>
<path d="M7.753 20.772c-0.183 0.077-0.373 0.415-0.373 0.668 0 0.112 0.084 0.267 0.204 0.394 0.52 0.52 1.364 0.021 1.132-0.675-0.127-0.38-0.555-0.548-0.963-0.387z"></path>
<path d="M7.76 23.577c-0.422 0.26-0.478 0.773-0.12 1.104 0.246 0.225 0.576 0.225 0.851-0.007 0.267-0.218 0.323-0.457 0.197-0.766-0.162-0.387-0.583-0.541-0.928-0.33z"></path>
<path d="M7.697 26.396c-0.365 0.239-0.415 0.64-0.134 0.977 0.148 0.183 0.232 0.218 0.478 0.218 0.358 0 0.569-0.141 0.675-0.45 0.091-0.288 0.014-0.527-0.253-0.738-0.232-0.183-0.492-0.19-0.766-0.007z"></path>
<path d="M7.584 29.27c-0.576 0.576 0.239 1.483 0.879 0.984 0.267-0.211 0.344-0.45 0.253-0.738-0.162-0.478-0.766-0.612-1.132-0.246z"></path>
</symbol>
</defs>
</svg>
