<svg aria-hidden="true" style="position: absolute; width: 0; height: 0; overflow: hidden;" version="1.1" xmlns="http://www.w3.org/2000/svg" xmlns:xlink="http://www.w3.org/1999/xlink">
<defs>

<symbol id="icon-shop-cart" viewBox="0 0 32 32">
<path d="M32 5.333v1.333h-10.667v-1.333h10.667zM12 29.333c0 1.467-1.2 2.667-2.667 2.667s-2.667-1.2-2.667-2.667c0-1.467 1.2-2.667 2.667-2.667s2.667 1.2 2.667 2.667zM10.667 29.333c0-0.733-0.6-1.333-1.333-1.333s-1.333 0.6-1.333 1.333c0 0.733 0.6 1.333 1.333 1.333s1.333-0.6 1.333-1.333zM25.333 29.333c0 1.467-1.2 2.667-2.667 2.667s-2.667-1.2-2.667-2.667c0-1.467 1.2-2.667 2.667-2.667s2.667 1.2 2.667 2.667zM24 29.333c0-0.733-0.6-1.333-1.333-1.333s-1.333 0.6-1.333 1.333c0 0.733 0.6 1.333 1.333 1.333s1.333-0.6 1.333-1.333zM27.92 18.667h-20.080l-1.667-12h11.16v-1.333h-11.347l-0.347-2.453c-0.227-1.64-1.64-2.88-3.293-2.88h-2.347v1.333h2.347c1 0 1.84 0.747 1.987 1.72l2.693 19.4c0.227 1.64 1.64 2.88 3.307 2.88h16.347v-1.333h-16.36c-1 0-1.84-0.747-1.987-1.72l-0.32-2.28h20.987l1.867-9.333h-1.36l-1.6 8h0.013z"></path>
</symbol>


<symbol id="icon-search" viewBox="0 0 32 32">
<path fill="none" stroke="#fff" style="stroke: var(--color1, #fff)" stroke-linejoin="miter" stroke-linecap="round" stroke-miterlimit="4" stroke-width="2.6667" d="M22.569 22.72l4.631 4.48M25.707 15.253c0 5.773-4.68 10.453-10.453 10.453s-10.453-4.68-10.453-10.453c0-5.773 4.68-10.453 10.453-10.453s10.453 4.68 10.453 10.453z"></path>
</symbol>

<symbol id="icon-Component" viewBox="0 0 76 32">
<path d="M-2.54-9.651h81.27v46.73h-81.27v-46.73z"></path>
</symbol>



<symbol id="icon-cancel" viewBox="0 0 32 32">
<path  d="M16 2.667c-7.373 0-13.333 5.96-13.333 13.333s5.96 13.333 13.333 13.333c7.373 0 13.333-5.96 13.333-13.333s-5.96-13.333-13.333-13.333zM16 26.667c-5.88 0-10.667-4.787-10.667-10.667s4.787-10.667 10.667-10.667c5.88 0 10.667 4.787 10.667 10.667s-4.787 10.667-10.667 10.667zM16 14.12l4.787-4.787 1.88 1.88-4.787 4.787 4.787 4.787-1.88 1.88-4.787-4.787-4.787 4.787-1.88-1.88 4.787-4.787-4.787-4.787 1.88-1.88 4.787 4.787z"></path>
</symbol>
 <symbol id="icon-x-close" viewBox="0 0 32 32">
<path stroke-linejoin="round" stroke-linecap="round" stroke-miterlimit="4" stroke-width="2.6667" d="M24 8l-16 16"></path>
<path stroke-linejoin="round" stroke-linecap="round" stroke-miterlimit="4" stroke-width="2.6667" d="M8 8l16 16"></path>
</symbol>


<symbol id="icon-info" viewBox="0 0 32 32">
<path fill="#63a6f7" style="fill: var(--color1, #63a6f7)" d="M14.669 9.335h2.667v2.667h-2.667v-2.667zM14.669 14.669h2.667v8h-2.667v-8zM16.002 2.669c-7.36 0-13.333 5.973-13.333 13.333s5.973 13.333 13.333 13.333c7.36 0 13.333-5.973 13.333-13.333s-5.973-13.333-13.333-13.333zM16.002 26.669c-5.88 0-10.667-4.787-10.667-10.667s4.787-10.667 10.667-10.667c5.88 0 10.667 4.787 10.667 10.667s-4.787 10.667-10.667 10.667z"></path>
</symbol>

<symbol id="icon-navigate_next" viewBox="0 0 32 32">
<path  d="M13.36 8l-1.88 1.88 6.107 6.12-6.107 6.12 1.88 1.88 8-8-8-8z"></path>
</symbol>


</defs>
</svg>
